<svg xmlns="http://www.w3.org/2000/svg" fill="currentColor" viewBox="0 0 144 24"><path fill="#00CD67" fill="currentColor" d="M78.356 20.527h2.078c.261 0 .511-.096.696-.268a.883.883 0 00.288-.646V4.327a.883.883 0 00-.288-.646 1.023 1.023 0 00-.696-.268h-2.95c-.26.002-.508.099-.691.27a.882.882 0 00-.286.644v8.53l-9.39-9.023a1.462 1.462 0 00-.48-.311 1.552 1.552 0 00-.575-.11h-2.078c-.261 0-.511.097-.696.268a.882.882 0 00-.288.646v15.286c0 .242.104.475.288.646.185.172.435.268.696.268h2.944c.26 0 .51-.096.695-.268a.883.883 0 00.288-.646v-8.53l9.422 9.024c.132.129.29.233.466.305.176.072.365.111.557.115zm7.147 0h12.995c.26 0 .51-.096.695-.268a.882.882 0 00.288-.646V17.39a.882.882 0 00-.288-.646 1.023 1.023 0 00-.695-.267h-9.18v-2.571h6.859c.26 0 .51-.097.695-.268a.882.882 0 00.288-.646v-2.224a.883.883 0 00-.29-.642 1.023 1.023 0 00-.693-.266h-6.845V7.422h8.904c.26 0 .51-.096.695-.268a.882.882 0 00.288-.646V4.285a.882.882 0 00-.288-.647 1.023 1.023 0 00-.695-.267H85.502c-.287 0-.562.106-.765.294a.97.97 0 00-.317.71V19.48a.94.94 0 00.069.398c.051.127.13.243.231.34.101.099.222.177.357.23.134.053.279.08.425.08zm48.216 0h2.944c.261 0 .511-.096.696-.268a.884.884 0 00.288-.646V7.465h5.37c.26 0 .511-.096.695-.268a.884.884 0 00.288-.646V4.327a.884.884 0 00-.288-.646 1.022 1.022 0 00-.695-.268h-15.599c-.26 0-.511.097-.695.268a.884.884 0 00-.288.646v2.224c0 .242.104.475.288.646.184.172.435.268.695.268h5.338v12.148c-.001.24.1.47.281.64.18.17.425.27.682.274zm-17.565 0h2.879c.268 0 .527-.085.737-.24a1.1 1.1 0 00.417-.613l3.744-15.231a.792.792 0 00-.172-.697.877.877 0 00-.309-.228.943.943 0 00-.385-.08h-2.924c-.27.001-.532.088-.742.247a1.09 1.09 0 00-.412.624l-1.803 8-2.026-8.024a1.099 1.099 0 00-.416-.608 1.246 1.246 0 00-.732-.24h-2.262a1.246 1.246 0 00-.731.24 1.099 1.099 0 00-.416.608l-2.013 8.023-1.816-8a1.094 1.094 0 00-.412-.623 1.245 1.245 0 00-.742-.247h-2.924a.943.943 0 00-.385.08.877.877 0 00-.309.228.792.792 0 00-.172.697l3.764 15.231c.058.242.204.459.412.614.209.155.468.24.735.24h2.865c.266-.001.523-.084.731-.236.208-.153.355-.366.417-.606l2.124-8.218 2.131 8.206c.058.242.204.459.412.614.209.155.468.24.735.24zM44.249 4.315a47.726 47.726 0 01-2.479 1.62.182.182 0 01-.133.03.186.186 0 01-.065-.022.173.173 0 01-.05-.044c-1.712-1.948-3.892-3.494-6.364-4.516A18.425 18.425 0 0027.287.02a29.734 29.734 0 00-11.8 3.472c-3.609 1.956-6.704 4.632-9.063 7.835a.182.182 0 01-.099.071.197.197 0 01-.124-.004 28.29 28.29 0 01-1.659-.548.626.626 0 00-.366-.005.584.584 0 00-.298.2.516.516 0 00.009.646 16.9 16.9 0 003.088 2.784.186.186 0 01.062.073.171.171 0 01-.02.178.194.194 0 01-.075.06A18.197 18.197 0 01.549 16.28a.608.608 0 00-.355.138.533.533 0 00-.186.313.51.51 0 00.065.353.571.571 0 00.286.238 18.512 18.512 0 0013.06.073.642.642 0 01.355 0 49.827 49.827 0 0011.27 1.292c.02.001.04.008.056.02a.091.091 0 01.032.045.085.085 0 010 .055.092.092 0 01-.035.045 17.842 17.842 0 01-7.9 2.266.61.61 0 00-.348.129.536.536 0 00-.192.299.508.508 0 00.043.345.563.563 0 00.26.25c3.416 1.674 7.336 2.24 11.137 1.607 3.8-.633 7.266-2.427 9.844-5.098a17.459 17.459 0 015.246-3.545 49.309 49.309 0 005.58-2.748c2.984-1.752 5.331-4.3 6.733-7.311a1.351 1.351 0 00.008-1.121 1.436 1.436 0 00-.345-.474 1.563 1.563 0 00-.516-.312 11.334 11.334 0 00-5.366-.69 11.064 11.064 0 00-5.032 1.866zm6.517 1.31a1.033 1.033 0 01-.547-.143.93.93 0 01-.368-.402.85.85 0 01-.066-.524.887.887 0 01.259-.47 1 1 0 01.496-.256c.19-.038.386-.023.566.043.18.067.335.181.445.329.11.148.17.323.172.503a.875.875 0 01-.274.643c-.18.173-.425.272-.683.277z"/></svg>