<svg width="32" height="32" fill="none" xmlns="http://www.w3.org/2000/svg"><circle cx="16" cy="16" r="16" fill="#00CD67"/><path d="M22.797 12.93c-.32.23-.64.447-.962.649a.077.077 0 0 1-.099-.016 6.685 6.685 0 0 0-2.471-1.808 6.967 6.967 0 0 0-3.057-.547c-3.011.203-6.174 1.81-8.107 4.53a.076.076 0 0 1-.038.027.079.079 0 0 1-.048 0c-.22-.069-.438-.143-.646-.22a.236.236 0 0 0-.146-.008.226.226 0 0 0-.12.08.21.21 0 0 0 .006.264c.35.418.754.793 1.201 1.116.01.008.019.018.024.03a.071.071 0 0 1-.008.07.077.077 0 0 1-.029.025 6.87 6.87 0 0 1-2.484.6.233.233 0 0 0-.138.055.21.21 0 0 0-.047.267.225.225 0 0 0 .111.096 7 7 0 0 0 5.075.028.227.227 0 0 1 .136-.01c1.433.345 2.903.518 4.38.517.008 0 .016.002.023.007a.036.036 0 0 1 .014.02.035.035 0 0 1-.001.023.037.037 0 0 1-.017.018 6.773 6.773 0 0 1-3.067.906.233.233 0 0 0-.135.052.21.21 0 0 0-.06.258.222.222 0 0 0 .101.1 6.999 6.999 0 0 0 4.323.64 6.82 6.82 0 0 0 3.82-2.038 6.806 6.806 0 0 1 2.035-1.42 18.745 18.745 0 0 0 2.169-1.106 6.592 6.592 0 0 0 2.615-2.933.558.558 0 0 0-.13-.64.605.605 0 0 0-.2-.124 4.286 4.286 0 0 0-2.079-.261 4.223 4.223 0 0 0-1.944.753Zm2.534.523a.39.39 0 0 1-.211-.058.366.366 0 0 1-.142-.16.347.347 0 0 1 .075-.395.393.393 0 0 1 .41-.085c.069.026.129.071.171.13a.352.352 0 0 1-.16.538.392.392 0 0 1-.143.03Z" fill="#fff"/></svg>