<svg viewBox="0 0 40 40" fill="currentColor" xmlns="http://www.w3.org/2000/svg"><path d="M19.9995 10.1621C23.2037 10.1621 23.5829 10.1745 24.8485 10.2321C26.0183 10.2854 26.6538 10.4807 27.0767 10.6451C27.6369 10.8628 28.0365 11.1228 28.4566 11.5425C28.8768 11.9626 29.1368 12.3623 29.354 12.9224C29.5184 13.3454 29.7136 13.9808 29.767 15.1507C29.8246 16.4158 29.837 16.7955 29.837 19.9998C29.837 23.204 29.8246 23.5832 29.767 24.8488C29.7136 26.0187 29.5184 26.6541 29.354 27.0771C29.1363 27.6373 28.8763 28.0369 28.4566 28.457C28.0365 28.8772 27.6369 29.1372 27.0767 29.3545C26.6538 29.5188 26.0183 29.7141 24.8485 29.7674C23.5834 29.8251 23.2037 29.8375 19.9995 29.8375C16.7953 29.8375 16.4157 29.8251 15.1506 29.7674C13.9807 29.7141 13.3453 29.5188 12.9223 29.3545C12.3622 29.1368 11.9625 28.8767 11.5424 28.457C11.1223 28.0369 10.8622 27.6373 10.645 27.0771C10.4807 26.6541 10.2854 26.0187 10.232 24.8488C10.1744 23.5837 10.162 23.204 10.162 19.9998C10.162 16.7955 10.1744 16.4163 10.232 15.1507C10.2854 13.9808 10.4807 13.3454 10.645 12.9224C10.8627 12.3623 11.1228 11.9626 11.5424 11.5425C11.9625 11.1224 12.3622 10.8623 12.9223 10.6451C13.3453 10.4807 13.9807 10.2854 15.1506 10.2321C16.4161 10.1745 16.7953 10.1621 19.9995 10.1621ZM19.9995 8C16.7405 8 16.3318 8.01381 15.052 8.0724C13.7749 8.13052 12.9028 8.33343 12.1392 8.63019C11.35 8.93695 10.6807 9.34707 10.0139 10.0144C9.34704 10.6813 8.93645 11.3505 8.63017 12.1393C8.33343 12.9029 8.13051 13.7751 8.0724 15.0521C8.01381 16.332 8 16.7407 8 19.9998C8 23.2588 8.01381 23.6675 8.0724 24.9474C8.13051 26.2245 8.33343 27.0966 8.63017 27.8602C8.93693 28.6495 9.34704 29.3187 10.0144 29.9856C10.6817 30.6529 11.3505 31.0631 12.1397 31.3698C12.9028 31.6666 13.7754 31.8695 15.0524 31.9276C16.3323 31.9862 16.741 32 20 32C23.259 32 23.6677 31.9862 24.9476 31.9276C26.2246 31.8695 27.0972 31.6666 27.8603 31.3698C28.6495 31.0631 29.3188 30.6529 29.9856 29.9856C30.653 29.3182 31.0631 28.6495 31.3698 27.8602C31.6666 27.0971 31.8695 26.2245 31.9276 24.9474C31.9862 23.6675 32 23.2588 32 19.9998C32 16.7407 31.9862 16.332 31.9276 15.0521C31.8695 13.7751 31.6666 12.9024 31.3698 12.1393C31.0631 11.35 30.653 10.6808 29.9856 10.0139C29.3183 9.34659 28.6495 8.93647 27.8603 8.62971C27.0963 8.33343 26.2241 8.13052 24.9471 8.0724C23.6672 8.01381 23.2585 8 19.9995 8Z" fill="currentColor"/><path d="M20.0055 13.8379C16.6021 13.8379 13.8438 16.5968 13.8438 19.9998C13.8438 23.4027 16.6026 26.1616 20.0055 26.1616C23.4083 26.1616 26.1672 23.4027 26.1672 19.9998C26.1672 16.5968 23.4088 13.8379 20.0055 13.8379ZM20.0055 23.9995C17.7963 23.9995 16.0058 22.2085 16.0058 19.9998C16.0058 17.7905 17.7968 16 20.0055 16C22.2142 16 24.0051 17.791 24.0051 19.9998C24.0051 22.209 22.2146 23.9995 20.0055 23.9995Z" fill="currentColor"/><path d="M26.4008 15.0343C27.1961 15.0343 27.8408 14.3896 27.8408 13.5943C27.8408 12.799 27.1961 12.1543 26.4008 12.1543C25.6056 12.1543 24.9609 12.799 24.9609 13.5943C24.9609 14.3896 25.6056 15.0343 26.4008 15.0343Z" fill="currentColor"/></svg>