<svg xmlns="http://www.w3.org/2000/svg" fill="none" viewBox="0 0 49 49"><ellipse cx="24.438" cy="24.476" fill="#D0426D" rx="24.391" ry="24.476"/><path fill="#fff" d="M24.43 12.436c3.908 0 4.37.015 5.914.086 1.427.065 2.202.304 2.718.505.683.266 1.17.585 1.682 1.098.513.514.83 1.004 1.095 1.689.2.518.438 1.295.503 2.727.07 1.548.086 2.013.086 5.934 0 3.921-.015 4.385-.086 5.934-.065 1.432-.303 2.21-.503 2.727a4.556 4.556 0 01-1.095 1.689 4.53 4.53 0 01-1.682 1.098c-.516.201-1.291.44-2.718.505-1.543.071-2.006.086-5.913.086-3.908 0-4.371-.015-5.914-.086-1.427-.065-2.201-.304-2.717-.505a4.539 4.539 0 01-1.683-1.098 4.541 4.541 0 01-1.094-1.689c-.2-.518-.439-1.295-.504-2.727-.07-1.548-.085-2.013-.085-5.934 0-3.921.015-4.385.085-5.934.065-1.432.303-2.21.504-2.727a4.557 4.557 0 011.094-1.689c.512-.514 1-.832 1.683-1.098.516-.201 1.29-.44 2.717-.505 1.544-.07 2.006-.086 5.914-.086zm0-2.646c-3.974 0-4.472.017-6.033.089-1.557.07-2.621.32-3.552.682a7.165 7.165 0 00-2.592 1.694 7.195 7.195 0 00-1.688 2.6c-.361.935-.609 2.002-.68 3.565-.071 1.566-.088 2.067-.088 6.055 0 3.988.017 4.489.088 6.055.071 1.563.319 2.63.68 3.564a7.194 7.194 0 001.689 2.602 7.169 7.169 0 002.591 1.694c.931.363 1.995.61 3.553.682 1.56.072 2.059.089 6.033.089 3.975 0 4.473-.017 6.034-.089 1.557-.071 2.622-.32 3.552-.683a7.164 7.164 0 002.592-1.694 7.2 7.2 0 001.688-2.6c.362-.934.61-2.002.68-3.565.072-1.566.089-2.067.089-6.055 0-3.988-.017-4.489-.089-6.055-.07-1.563-.318-2.63-.68-3.564a7.195 7.195 0 00-1.688-2.601 7.17 7.17 0 00-2.592-1.694c-.932-.363-1.995-.611-3.553-.682-1.56-.072-2.059-.089-6.033-.089z"/><path fill="#fff" d="M24.436 16.935c-4.15 0-7.514 3.376-7.514 7.54 0 4.165 3.364 7.541 7.514 7.541s7.515-3.376 7.515-7.54c0-4.165-3.364-7.541-7.515-7.541zm0 12.435c-2.694 0-4.878-2.192-4.878-4.895 0-2.703 2.185-4.895 4.878-4.895 2.694 0 4.878 2.192 4.878 4.895 0 2.704-2.184 4.895-4.878 4.895zm7.806-10.972a1.76 1.76 0 001.756-1.762 1.76 1.76 0 00-1.756-1.762 1.76 1.76 0 00-1.756 1.762 1.76 1.76 0 001.756 1.762z"/></svg>