<svg xmlns="http://www.w3.org/2000/svg" fill="none" viewBox="0 0 49 49"><ellipse cx="24.391" cy="24.476" fill="#06C755" rx="24.391" ry="24.476"/><path fill="#fff" d="M39.488 23.523c0-6.896-6.838-12.509-15.244-12.509C15.84 11.014 9 16.627 9 23.523c0 6.184 5.422 11.363 12.75 12.34.495.109 1.172.331 1.343.758.153.388.1.998.049 1.393l-.217 1.32c-.066.388-.307 1.524 1.32.832 1.625-.691 8.778-5.228 11.977-8.95 2.209-2.447 3.266-4.934 3.266-7.693zm-20.62 3.68c0 .165-.133.3-.297.3h-4.275a.295.295 0 01-.205-.085l-.004-.004-.003-.004a.295.295 0 01-.084-.208V20.49c0-.166.133-.3.296-.3h1.068c.164 0 .297.134.297.3v5.334h2.906c.164 0 .297.134.297.3v1.08h.003zm2.574.003c0 .166-.132.3-.296.3h-1.068a.298.298 0 01-.296-.3v-6.717c0-.166.132-.3.296-.3h1.068c.164 0 .296.134.296.3v6.717zm7.362 0c0 .166-.132.3-.296.3H27.44a.268.268 0 01-.077-.01h-.003c-.007-.004-.014-.004-.021-.008l-.01-.003c-.004-.004-.01-.004-.014-.008-.004-.003-.01-.003-.014-.007-.004 0-.007-.003-.007-.003a.078.078 0 01-.018-.01s-.003 0-.003-.004a.317.317 0 01-.077-.074l-3.046-4.163v3.99c0 .166-.133.3-.297.3h-1.07a.298.298 0 01-.297-.3v-6.717c0-.166.132-.3.296-.3h1.092c.007 0 .01 0 .014.004h.014c.007 0 .01.003.018.003.003 0 .007 0 .01.004.007 0 .01.004.018.007.003 0 .006.004.01.004l.018.007c.003 0 .006.003.01.003l.017.01c.004 0 .007.004.01.008a.05.05 0 01.015.01c.003.004.007.004.007.008.007.003.01.006.017.014.004 0 .004.003.007.003l.018.018.003.003c.007.01.018.021.025.032l3.042 4.155V20.49c0-.166.133-.3.297-.3h1.067c.164 0 .297.134.297.3v6.717h-.004zm5.904-5.637c0 .166-.133.3-.297.3h-2.906v1.136h2.906c.164 0 .297.134.297.3v1.079c0 .166-.133.3-.297.3h-2.906v1.136h2.906c.164 0 .297.134.297.3v1.079c0 .166-.133.3-.297.3h-4.27a.289.289 0 01-.206-.085l-.004-.004-.003-.003a.295.295 0 01-.084-.208v-6.71a.3.3 0 01.084-.208s.003-.003.003-.007l.004-.003a.289.289 0 01.206-.085h4.27c.164 0 .297.134.297.3v1.083z"/></svg>