<svg viewBox="0 0 40 40" fill="currentColor" xmlns="http://www.w3.org/2000/svg"><path d="M33 17.5555C33 11.9201 27.3923 7.33398 20.5 7.33398C13.6077 7.33398 8 11.9201 8 17.5555C8 22.6086 12.4461 26.8402 18.4543 27.6387C18.8606 27.7281 19.4157 27.9097 19.5558 28.2585C19.6817 28.5755 19.6388 29.0742 19.5959 29.3971C19.5959 29.3971 19.45 30.2849 19.4185 30.4751C19.3642 30.7922 19.1667 31.7204 20.5 31.1554C21.8333 30.5904 27.6984 26.8835 30.322 23.8424C32.1331 21.8419 33 19.8097 33 17.5555ZM16.0911 20.562C16.0911 20.6975 15.9824 20.807 15.8479 20.807H12.3431C12.2773 20.807 12.2201 20.7811 12.1743 20.7379L12.1714 20.735L12.1686 20.7321C12.1257 20.6889 12.0999 20.6283 12.0999 20.562V15.0765C12.0999 14.941 12.2086 14.8315 12.3431 14.8315H13.2186C13.3531 14.8315 13.4618 14.941 13.4618 15.0765V19.435H15.845C15.9795 19.435 16.0882 19.5445 16.0882 19.68V20.562H16.0911ZM18.2026 20.5649C18.2026 20.7004 18.0938 20.8099 17.9594 20.8099H17.0839C16.9494 20.8099 16.8407 20.7004 16.8407 20.5649V15.0765C16.8407 14.941 16.9494 14.8315 17.0839 14.8315H17.9594C18.0938 14.8315 18.2026 14.941 18.2026 15.0765V20.5649ZM24.2394 20.5649C24.2394 20.7004 24.1307 20.8099 23.9962 20.8099H23.1207C23.0978 20.8099 23.0778 20.807 23.0578 20.8013H23.0549C23.0492 20.7984 23.0435 20.7984 23.0378 20.7955C23.0349 20.7955 23.032 20.7926 23.0292 20.7926C23.0263 20.7898 23.0206 20.7898 23.0177 20.7869C23.0149 20.784 23.0092 20.784 23.0063 20.7811C23.0034 20.7811 23.0006 20.7782 23.0006 20.7782C22.9949 20.7753 22.9891 20.7725 22.9863 20.7696C22.9863 20.7696 22.9834 20.7696 22.9834 20.7667C22.9605 20.7494 22.9376 20.7321 22.9205 20.7062L20.4228 17.3047V20.5649C20.4228 20.7004 20.314 20.8099 20.1796 20.8099H19.3012C19.1667 20.8099 19.058 20.7004 19.058 20.5649V15.0765C19.058 14.941 19.1667 14.8315 19.3012 14.8315H20.1767C20.1796 14.8315 20.1824 14.8315 20.1853 14.8315C20.191 14.8315 20.1939 14.8315 20.1967 14.8315C20.2024 14.8315 20.2053 14.8315 20.2082 14.8344C20.211 14.8344 20.2139 14.8344 20.2196 14.8344C20.2253 14.8344 20.2282 14.8373 20.2339 14.8373C20.2368 14.8373 20.2396 14.8373 20.2425 14.8402C20.2482 14.8402 20.2511 14.843 20.2568 14.8459C20.2597 14.8459 20.2625 14.8488 20.2654 14.8488C20.2711 14.8517 20.274 14.8517 20.2797 14.8546C20.2826 14.8546 20.2854 14.8575 20.2883 14.8575C20.294 14.8603 20.2969 14.8632 20.3026 14.8661C20.3054 14.8661 20.3083 14.869 20.3112 14.8719C20.3169 14.8747 20.3198 14.8776 20.3226 14.8805C20.3255 14.8834 20.3283 14.8834 20.3283 14.8863C20.3341 14.8892 20.3369 14.892 20.3426 14.8978C20.3455 14.8978 20.3455 14.9007 20.3484 14.9007C20.3541 14.9065 20.3569 14.9093 20.3627 14.9151C20.3627 14.9151 20.3627 14.9151 20.3655 14.918C20.3713 14.9266 20.3798 14.9353 20.3856 14.9439L22.8804 18.3396V15.0765C22.8804 14.941 22.9891 14.8315 23.1236 14.8315H23.9991C24.1336 14.8315 24.2423 14.941 24.2423 15.0765V20.5649H24.2394ZM29.0803 15.9586C29.0803 16.0941 28.9716 16.2036 28.8371 16.2036H26.4539V17.1318H28.8371C28.9716 17.1318 29.0803 17.2413 29.0803 17.3768V18.2589C29.0803 18.3944 28.9716 18.5039 28.8371 18.5039H26.4539V19.4321H28.8371C28.9716 19.4321 29.0803 19.5416 29.0803 19.6771V20.5592C29.0803 20.6946 28.9716 20.8042 28.8371 20.8042H25.3352C25.2694 20.8042 25.2093 20.7782 25.1664 20.735L25.1635 20.7321L25.1607 20.7292C25.1178 20.686 25.092 20.6255 25.092 20.5592V15.0765C25.092 15.0102 25.1178 14.9526 25.1607 14.9065C25.1607 14.9065 25.1635 14.9036 25.1635 14.9007L25.1664 14.8978C25.2093 14.8546 25.2694 14.8286 25.3352 14.8286H28.8371C28.9716 14.8286 29.0803 14.9382 29.0803 15.0736V15.9586Z" fill="currentColor"/></svg>