<svg xmlns="http://www.w3.org/2000/svg" fill="none" viewBox="0 0 40 40"><rect width="38" height="38" x="1" y="1" fill="#00CD68" stroke="#fff" stroke-width="2" rx="7"/><path fill="#fff" d="M26.967 16.877c-.361.266-.72.513-1.08.745a.108.108 0 01-.138-.02 7.554 7.554 0 00-6.122-2.59c-2.981.13-6.617 2.218-8.615 5.06a.106.106 0 01-.12.04c-.334-.108-.67-.237-1.013-.388a.218.218 0 00-.259.068.22.22 0 00-.001.269 7.793 7.793 0 001.484 1.469.108.108 0 01-.018.186 7.703 7.703 0 01-2.877.72.219.219 0 00-.204.18.221.221 0 00.126.241 7.378 7.378 0 005.803.069.436.436 0 01.262-.023 19.35 19.35 0 004.632.537.087.087 0 01.086.064.088.088 0 01-.038.1 7.454 7.454 0 01-3.517 1.034.218.218 0 00-.194.306.22.22 0 00.094.104c3.504 1.995 6.965.44 8.414-.89.965-.886 1.667-1.73 3.04-2.49.78-.352 1.54-.748 2.275-1.186 2.083-1.24 2.783-2.939 2.994-3.644a.437.437 0 00-.214-.512c-.712-.37-2.617-1.065-4.802.543l.002.008zm3.298.105a.44.44 0 01-.571.363.437.437 0 01-.3-.385.44.44 0 01.49-.468.438.438 0 01.38.49z"/></svg>