<svg xmlns="http://www.w3.org/2000/svg" fill="none" viewBox="0 0 49 49"><ellipse cx="24.492" cy="24.476" fill="#000" rx="24.391" ry="24.476"/><g fill-rule="evenodd" clip-path="url(#___SVG_ID__26__0___)" clip-rule="evenodd"><path fill="#EC407A" d="M30.53 20.106A11.203 11.203 0 0037 22.159v-4.588c-.455 0-.91-.046-1.354-.138v3.625c-2.34.006-4.62-.72-6.517-2.076v9.383a8.443 8.443 0 01-1.209 4.372 8.544 8.544 0 01-3.305 3.134 8.64 8.64 0 01-8.807-.406 8.61 8.61 0 004.39 2.377 8.66 8.66 0 004.983-.45 8.573 8.573 0 003.883-3.128 8.457 8.457 0 001.466-4.74v-9.418zm1.678-4.646a6.306 6.306 0 01-1.678-3.75v-.597h-1.297a6.47 6.47 0 001.023 2.486 6.514 6.514 0 001.952 1.861zM18.805 31.83a3.858 3.858 0 01-.39-4.08 3.901 3.901 0 011.448-1.576 3.95 3.95 0 012.067-.584c.393 0 .784.063 1.158.183V21.07a7.67 7.67 0 00-1.355-.08v3.66a3.956 3.956 0 00-2.87.162 3.905 3.905 0 00-1.987 2.06 3.857 3.857 0 00-.038 2.848 3.901 3.901 0 001.933 2.11h.034z"/><path fill="#fff" d="M29.13 18.982a11.156 11.156 0 006.48 2.053V17.41a6.519 6.519 0 01-3.471-1.95 6.455 6.455 0 01-1.95-1.86 6.392 6.392 0 01-1.013-2.487h-3.322v18.353a3.866 3.866 0 01-.762 2.247 3.923 3.923 0 01-1.937 1.39 3.958 3.958 0 01-2.392.019 3.925 3.925 0 01-1.958-1.362 3.905 3.905 0 01-1.797-1.834 3.856 3.856 0 01-.26-2.543 3.886 3.886 0 011.39-2.154 3.946 3.946 0 012.438-.833c.393.006.782.068 1.158.183v-3.59a8.628 8.628 0 00-4.69 1.496 8.514 8.514 0 00-3.087 3.807 8.429 8.429 0 00-.463 4.861 8.477 8.477 0 002.314 4.312 8.538 8.538 0 004.78 1.445 8.626 8.626 0 006.05-2.517 8.472 8.472 0 002.491-6.017v-9.394z"/><path fill="#81D4FA" d="M35.646 17.41v-.975a6.491 6.491 0 01-3.472-.975 6.427 6.427 0 003.472 1.95zm-6.412-6.297l-.104-.528V10H24.5v18.353a3.873 3.873 0 01-.515 1.883 3.916 3.916 0 01-1.371 1.4 3.961 3.961 0 01-3.808.158 3.923 3.923 0 001.957 1.362c.78.24 1.616.235 2.392-.018a3.922 3.922 0 001.937-1.39c.484-.653.75-1.439.762-2.248V11.147l3.38-.034zm-7.465 9.876v-1.044a8.178 8.178 0 00-1.158-.08 8.63 8.63 0 00-5.157 1.642 8.502 8.502 0 00-3.135 4.376 8.428 8.428 0 00.136 5.367 8.513 8.513 0 003.353 4.215 8.464 8.464 0 01-2.3-4.313 8.418 8.418 0 01.477-4.855 8.504 8.504 0 013.093-3.794 8.617 8.617 0 014.69-1.48v-.034z"/></g><defs><clipPath id="___SVG_ID__26__0___"><path fill="#fff" d="M0 0h25v28H0z" transform="translate(12 10)"/></clipPath></defs></svg>