<svg viewBox="0 0 40 40" fill="none" xmlns="http://www.w3.org/2000/svg"><path d="M18.5574 17.877V17.0976C18.2868 17.0548 18.0136 17.0313 17.7397 17.0274C15.0881 17.0217 12.7405 18.74 11.9443 21.2693C11.148 23.7985 12.0879 26.5516 14.2645 28.0661C12.6341 26.3211 12.1814 23.7809 13.1086 21.5802C14.0358 19.3795 16.1698 17.929 18.5574 17.877Z" fill="#25F4EE"/><path d="M18.7046 26.705C20.1871 26.703 21.4058 25.535 21.4707 24.0539V10.8368H23.8854C23.8361 10.5607 23.8126 10.2805 23.8151 10L20.5124 10V23.2043C20.4575 24.6929 19.236 25.8721 17.7464 25.8745C17.3012 25.8707 16.8633 25.7613 16.4688 25.5551C16.7245 25.9094 17.0603 26.1982 17.4488 26.3981C17.8374 26.5979 18.2677 26.703 18.7046 26.705ZM28.3954 15.3213V14.5867C27.5067 14.587 26.6378 14.3247 25.8976 13.8329C26.5465 14.5871 27.4232 15.1096 28.3954 15.3213Z" fill="#25F4EE"/><path d="M25.9005 13.8325C25.1715 13.0023 24.7695 11.935 24.7698 10.8301H23.8883C24.0021 11.441 24.2393 12.0223 24.5853 12.5385C24.9312 13.0547 25.3788 13.495 25.9005 13.8325ZM17.7429 20.3292C16.4706 20.3357 15.3661 21.2073 15.064 22.4432C14.7618 23.679 15.3395 24.9619 16.4653 25.5547C16.1661 25.1417 15.987 24.6541 15.9476 24.1456C15.9083 23.6372 16.0102 23.1278 16.2422 22.6737C16.4742 22.2195 16.8273 21.8384 17.2623 21.5723C17.6974 21.3063 18.1975 21.1657 18.7075 21.1661C18.9847 21.1695 19.2601 21.2126 19.5252 21.2938V17.9337C19.2545 17.8931 18.9812 17.8718 18.7075 17.8698H18.5606V20.4251C18.2941 20.3536 18.0187 20.3213 17.7429 20.3292Z" fill="#FE2C55"/><path d="M28.3962 15.3223V17.8775C26.751 17.8743 25.1486 17.3536 23.8159 16.3891V23.103C23.8089 26.4532 21.091 29.1653 17.7408 29.1653C16.4966 29.1676 15.2824 28.7837 14.2656 28.0666C15.9624 29.8916 18.6032 30.4923 20.9225 29.581C23.2418 28.6696 24.7671 26.4318 24.7677 23.9399V17.2451C26.1049 18.2033 27.7093 18.7172 29.3544 18.7144V15.4245C29.0323 15.4235 28.7112 15.3892 28.3962 15.3223Z" fill="#FE2C55"/><path d="M23.8111 23.1017V16.3878C25.1479 17.3467 26.7526 17.8608 28.3978 17.857V15.3018C27.4258 15.0965 26.5469 14.5809 25.8936 13.8325C25.3719 13.495 24.9243 13.0547 24.5784 12.5385C24.2324 12.0223 23.9952 11.441 23.8814 10.8301H21.4667V24.0535C21.4184 25.2333 20.6282 26.2529 19.4978 26.5942C18.3675 26.9355 17.1451 26.5234 16.452 25.5675C15.3263 24.9747 14.7485 23.6918 15.0507 22.456C15.3528 21.2201 16.4573 20.3485 17.7296 20.342C18.0069 20.3445 18.2824 20.3875 18.5473 20.4698V17.9145C16.1463 17.9552 13.9962 19.4106 13.0663 21.6246C12.1365 23.8385 12.6026 26.3927 14.2545 28.1355C15.2813 28.829 16.4972 29.1882 17.736 29.164C21.0862 29.164 23.8041 26.4519 23.8111 23.1017Z" fill="black"/></svg>