<svg viewBox="0 0 40 40" fill="currentColor" xmlns="http://www.w3.org/2000/svg"><path d="M29.218 15.0281C29.2321 15.2409 29.2321 15.4536 29.2321 15.6683C29.2321 22.2105 24.4525 29.7556 15.7129 29.7556V29.7516C13.1312 29.7556 10.6031 28.985 8.42969 27.532C8.80509 27.5791 9.18238 27.6026 9.5606 27.6036C11.7001 27.6056 13.7785 26.8575 15.4617 25.4801C13.4285 25.4399 11.6455 24.0585 11.0227 22.0418C11.7349 22.185 12.4688 22.1556 13.1679 21.9565C10.9512 21.4899 9.35643 19.4605 9.35643 17.1036C9.35643 17.082 9.35643 17.0614 9.35643 17.0409C10.0169 17.4242 10.7564 17.6369 11.5129 17.6605C9.42512 16.2065 8.78157 13.3124 10.0423 11.0497C12.4547 14.1428 16.014 16.0232 19.8348 16.2222C19.4519 14.5026 19.975 12.7007 21.2094 11.4918C23.1231 9.61733 26.1329 9.71341 27.9318 11.7065C28.996 11.4879 30.0158 11.0811 30.9492 10.5046C30.5945 11.6507 29.8521 12.6242 28.8605 13.2428C29.8023 13.1271 30.7224 12.8644 31.589 12.4634C30.9511 13.4595 30.1476 14.3271 29.218 15.0281Z" fill="currentColor"/></svg>