<svg viewBox="0 0 40 40" fill="none" xmlns="http://www.w3.org/2000/svg"><g clip-path="url(#___SVG_ID__64__0___)"><path d="M30.622 26.8567C29.4037 27.833 25.109 28.5996 20.093 28.5996C15.0769 28.5996 10.7822 27.833 9.56395 26.8567C8.44417 25.9607 8.20312 21.9098 8.20312 19.611C8.20312 17.3123 8.44417 13.2614 9.56395 12.3653C10.7822 11.3886 15.0793 10.6225 20.093 10.6225C25.1067 10.6225 29.4037 11.3886 30.622 12.3653C31.7417 13.2614 31.9828 17.3118 31.9828 19.611C31.9828 21.9103 31.7417 25.9607 30.622 26.8567ZM23.6604 19.4999L18.1423 16.2304C18.1226 16.2187 18.1 16.2123 18.077 16.212C18.054 16.2118 18.0314 16.2175 18.0113 16.2288C17.9913 16.24 17.9747 16.2563 17.9631 16.2761C17.9515 16.2958 17.9454 16.3182 17.9454 16.341V22.881C17.9454 22.9038 17.9516 22.9262 17.9632 22.9459C17.9748 22.9656 17.9914 22.982 18.0114 22.9932C18.0314 23.0045 18.054 23.0103 18.077 23.0101C18.1 23.01 18.1225 23.0037 18.1423 22.9921L23.6618 19.7221C23.6812 19.7107 23.6972 19.6945 23.7083 19.675C23.7194 19.6555 23.7251 19.6334 23.7249 19.611C23.7248 19.5886 23.7188 19.5665 23.7075 19.547C23.6962 19.5275 23.6799 19.5113 23.6604 19.4999Z" fill="#1F1F1F"/></g><defs><clipPath id="___SVG_ID__64__0___"><rect width="23.7797" height="17.9771" fill="white" transform="matrix(1 0 0 -1 8.20312 28.5996)"/></clipPath></defs></svg>