<svg xmlns="http://www.w3.org/2000/svg" fill="none" viewBox="0 0 49 49"><ellipse cx="24.391" cy="24.476" fill="#E93224" rx="24.391" ry="24.476"/><path fill="#fff" d="M37.34 32.867C35.855 34.062 30.617 35 24.5 35s-11.355-.938-12.84-2.133C10.294 31.771 10 26.813 10 24c0-2.813.294-7.77 1.66-8.867C13.145 13.938 18.386 13 24.5 13s11.355.938 12.84 2.133C38.706 16.23 39 21.186 39 24c0 2.814-.294 7.77-1.66 8.867zm-8.49-9.003l-6.729-4.001a.158.158 0 00-.24.135v8.004a.158.158 0 00.08.137.16.16 0 00.16-.001l6.731-4.002a.156.156 0 00.056-.214.159.159 0 00-.057-.058z"/></svg>